<?xml version="1.0" encoding="utf-8"?>
<!-- Generator: Adobe Illustrator 21.1.0, SVG Export Plug-In . SVG Version: 6.00 Build 0)  -->
<svg version="1.1" id="Layer_1" xmlns="http://www.w3.org/2000/svg" xmlns:xlink="http://www.w3.org/1999/xlink" x="0px" y="0px"
	 viewBox="0 0 204 446.8" style="enable-background:new 0 0 204 446.8;" xml:space="preserve">
<style type="text/css">
	.st0{fill:#FFFFFF;stroke:#231F20;stroke-width:8;stroke-linejoin:round;}
</style>
<path class="st0" d="M4,431.2V15.6C4,9.2,9.2,4,15.6,4h172.8c6.4,0,11.6,5.2,11.6,11.6v415.6c0,6.4-5.2,11.6-11.6,11.6H15.6
	C9.2,442.8,4,437.6,4,431.2z"/>
<path class="st0" d="M20.5,369.4V67.7c0-28.1,22.7-50.8,50.8-50.8h61.5c28.1,0,50.8,22.7,50.8,50.8v301.7
	c0,28.1-22.7,50.8-50.8,50.8H71.2C43.2,420.2,20.5,397.5,20.5,369.4z"/>
<path class="st0" d="M36.2,323.9V85.8C36.2,57.7,59,35,87,35H117c28.1,0,50.8,22.7,50.8,50.8v238.1c0,28.1-22.7,50.8-50.8,50.8H87
	C59,374.7,36.2,352,36.2,323.9z"/>
<circle class="st0" cx="104.6" cy="79.6" r="2.6"/>
<rect x="80.1" y="13.1" class="st0" width="43.9" height="13.6"/>
<rect x="93.6" y="9.2" class="st0" width="16.8" height="45.2"/>
</svg>
