<svg id="Layer_1" data-name="Layer 1" xmlns="http://www.w3.org/2000/svg" viewBox="0 0 248.92 552"><defs><style>.cls-1{fill:#fff;stroke:#231f20;stroke-miterlimit:10;stroke-width:8px;}</style></defs><rect class="cls-1" x="4" y="30.76" width="240.81" height="490.48" rx="8.88"/><path class="cls-1" d="M8.35,4H238.29a6.62,6.62,0,0,1,6.62,6.62v6.75A6.62,6.62,0,0,1,238.29,24H10.73a6.62,6.62,0,0,1-6.62-6.62V8.24A4.24,4.24,0,0,1,8.35,4Z"/><path class="cls-1" d="M8.35,528H238.29a6.62,6.62,0,0,1,6.62,6.62v6.75a6.62,6.62,0,0,1-6.62,6.62H10.73a6.62,6.62,0,0,1-6.62-6.62v-9.14A4.24,4.24,0,0,1,8.35,528Z"/><rect class="cls-1" x="22.53" y="52.69" width="203.74" height="82.72" rx="9.96"/></svg>