<svg id="Layer_1" data-name="Layer 1" xmlns="http://www.w3.org/2000/svg" viewBox="0 0 163.99 160.22"><defs><style>.cls-1{fill:#fff;stroke-width:8px;}.cls-1,.cls-2{stroke:#231f20;stroke-linejoin:round;}.cls-2{fill:none;stroke-width:2px;}</style></defs><rect class="cls-1" x="4" y="4" width="155.99" height="152.22"/><line class="cls-2" x1="23.61" y1="9.16" x2="23.61" y2="151.06"/><line class="cls-2" x1="33.34" y1="9.16" x2="33.34" y2="151.06"/><line class="cls-2" x1="43.07" y1="9.16" x2="43.07" y2="151.06"/><line class="cls-2" x1="52.8" y1="9.16" x2="52.8" y2="151.06"/><line class="cls-2" x1="62.53" y1="9.16" x2="62.53" y2="151.06"/><line class="cls-2" x1="72.26" y1="9.16" x2="72.26" y2="151.06"/><line class="cls-2" x1="81.99" y1="9.16" x2="81.99" y2="151.06"/><line class="cls-2" x1="81.99" y1="9.16" x2="81.99" y2="151.06"/><line class="cls-2" x1="91.73" y1="9.16" x2="91.73" y2="151.06"/><line class="cls-2" x1="101.46" y1="9.16" x2="101.46" y2="151.06"/><line class="cls-2" x1="111.19" y1="9.16" x2="111.19" y2="151.06"/><line class="cls-2" x1="120.92" y1="9.16" x2="120.92" y2="151.06"/><line class="cls-2" x1="130.65" y1="9.16" x2="130.65" y2="151.06"/><line class="cls-2" x1="140.38" y1="9.16" x2="140.38" y2="151.06"/></svg>