<svg id="Layer_1" data-name="Layer 1" xmlns="http://www.w3.org/2000/svg" viewBox="0 0 168.41 188"><defs><style>.cls-1{fill:#fff;stroke-width:8px;}.cls-1,.cls-2{stroke:#231f20;stroke-linejoin:round;}.cls-2{fill:none;stroke-width:6px;}</style></defs><rect class="cls-1" x="7.43" y="18.76" width="153.72" height="150"/><rect class="cls-1" x="4" y="4" width="76.41" height="13.06"/><rect class="cls-1" x="88" y="4" width="76.41" height="13.06"/><rect class="cls-1" x="23.57" y="170.45" width="124.52" height="13.55" rx="5.19"/><line class="cls-2" x1="85.54" y1="66.31" x2="85.54" y2="130.75"/><line class="cls-2" x1="116.89" y1="97.44" x2="53.78" y2="97.44"/><line class="cls-2" x1="68.96" y1="52.4" x2="84.28" y2="67.72"/><line class="cls-2" x1="100.89" y1="52.49" x2="85.57" y2="67.81"/><line class="cls-2" x1="130.18" y1="113.61" x2="114.86" y2="98.29"/><line class="cls-2" x1="130.08" y1="81.69" x2="114.76" y2="97.01"/><line class="cls-2" x1="130.3" y1="75.38" x2="108.64" y2="75.38"/><line class="cls-2" x1="107.66" y1="52.87" x2="107.66" y2="74.54"/><line class="cls-2" x1="39.67" y1="122.43" x2="61.33" y2="122.43"/><line class="cls-2" x1="62.31" y1="144.93" x2="62.31" y2="123.27"/><line class="cls-2" x1="69.44" y1="144.68" x2="84.76" y2="129.36"/><line class="cls-2" x1="101.37" y1="144.58" x2="86.05" y2="129.26"/><line class="cls-2" x1="40.15" y1="81.74" x2="55.47" y2="97.06"/><line class="cls-2" x1="40.25" y1="113.66" x2="55.57" y2="98.34"/><line class="cls-2" x1="61.52" y1="52.8" x2="61.52" y2="74.47"/><line class="cls-2" x1="39.01" y1="75.45" x2="60.68" y2="75.45"/><line class="cls-2" x1="110.13" y1="145" x2="110.13" y2="123.34"/><line class="cls-2" x1="132.64" y1="122.36" x2="110.97" y2="122.36"/><line class="cls-2" x1="59.39" y1="124.37" x2="109.18" y2="74.58"/><line class="cls-2" x1="59.7" y1="72.65" x2="111.94" y2="124.89"/></svg>