<svg id="Layer_1" data-name="Layer 1" xmlns="http://www.w3.org/2000/svg" viewBox="0 0 116.47 177.33"><defs><style>.cls-1{fill:#fff;stroke:#231f20;stroke-linejoin:round;stroke-width:8px;}</style></defs><path class="cls-1" d="M52.58,4H63.89a48.58,48.58,0,0,1,48.58,48.58V173.33a0,0,0,0,1,0,0H4a0,0,0,0,1,0,0V52.58A48.58,48.58,0,0,1,52.58,4Z"/><path class="cls-1" d="M58.24,15.68h0a48.58,48.58,0,0,1,48.58,48.58V122.6a0,0,0,0,1,0,0H9.66a0,0,0,0,1,0,0V64.26A48.58,48.58,0,0,1,58.24,15.68Z"/><rect class="cls-1" x="54.21" y="146.48" width="16.11" height="16.11" rx="8.05" transform="translate(-18.81 3.98) rotate(-5.6)"/></svg>