<svg id="Layer_1" data-name="Layer 1" xmlns="http://www.w3.org/2000/svg" viewBox="0 0 546.45 155.26"><defs><style>.cls-1,.cls-4{fill:#fff;}.cls-1,.cls-2,.cls-3,.cls-4{stroke:#231f20;stroke-linejoin:round;}.cls-1{stroke-width:8px;}.cls-2,.cls-3{fill:none;}.cls-2,.cls-3,.cls-4{stroke-width:5px;}.cls-3{stroke-linecap:round;}</style></defs><rect class="cls-1" x="21.55" y="4" width="239.35" height="132.26"/><rect class="cls-1" x="4" y="4.42" width="13.55" height="144.84"/><rect class="cls-1" x="258.13" y="4.42" width="12.32" height="144.84"/><rect class="cls-1" x="24.71" y="138.68" width="110.32" height="12.58"/><rect class="cls-1" x="142.71" y="138.68" width="110.32" height="12.58"/><line class="cls-2" x1="138.74" y1="44.07" x2="138.74" y2="61.48"/><line class="cls-3" x1="137.23" y1="62.81" x2="76.26" y2="97"/><line class="cls-3" x1="201.23" y1="97" x2="140.26" y2="62.81"/><line class="cls-3" x1="76.26" y1="97" x2="201.23" y2="97"/><path class="cls-4" d="M134.19,21.63l6.13,3.48c-16.68-13.24-17.21,15.1-5,21.38a10.78,10.78,0,0,0,5,1.2" transform="translate(0.9 -1.73)"/><path class="cls-4" d="M136.32,45.79" transform="translate(0.9 -1.73)"/><rect class="cls-1" x="293.55" y="4" width="239.35" height="132.26"/><rect class="cls-1" x="276" y="4.42" width="13.55" height="144.84"/><rect class="cls-1" x="530.13" y="4.42" width="12.32" height="144.84"/><rect class="cls-1" x="296.71" y="138.68" width="110.32" height="12.58"/><rect class="cls-1" x="414.71" y="138.68" width="110.32" height="12.58"/><line class="cls-2" x1="410.74" y1="44.07" x2="410.74" y2="61.48"/><line class="cls-3" x1="409.23" y1="62.81" x2="348.26" y2="97"/><line class="cls-3" x1="473.23" y1="97" x2="412.26" y2="62.81"/><line class="cls-3" x1="348.26" y1="97" x2="473.23" y2="97"/><path class="cls-4" d="M406.19,21.63l6.13,3.48c-16.68-13.24-17.21,15.1-5,21.38a10.78,10.78,0,0,0,5,1.2" transform="translate(0.9 -1.73)"/><path class="cls-4" d="M408.32,45.79" transform="translate(0.9 -1.73)"/></svg>