<svg id="Layer_1" data-name="Layer 1" xmlns="http://www.w3.org/2000/svg" viewBox="0 0 155.26 274.45"><defs><style>.cls-1,.cls-4{fill:#fff;}.cls-1,.cls-2,.cls-3,.cls-4{stroke:#231f20;stroke-linejoin:round;}.cls-1{stroke-width:8px;}.cls-2,.cls-3{fill:none;}.cls-2,.cls-3,.cls-4{stroke-width:5px;}.cls-3{stroke-linecap:round;}</style></defs><rect class="cls-1" x="-32.82" y="67.94" width="239.35" height="132.26" transform="translate(-48.94 220.08) rotate(-90)"/><rect class="cls-1" x="73.37" y="192.1" width="13.55" height="144.84" transform="translate(-186.1 343.82) rotate(-90)"/><rect class="cls-1" x="73.98" y="-61.42" width="12.32" height="144.84" transform="translate(67.42 90.31) rotate(-90)"/><rect class="cls-1" x="-43.15" y="189.13" width="110.32" height="12.58" transform="translate(-185.13 206.6) rotate(-90)"/><rect class="cls-1" x="-43.15" y="71.13" width="110.32" height="12.58" transform="translate(-67.13 88.6) rotate(-90)"/><line class="cls-2" x1="85.13" y1="114.78" x2="85.13" y2="127.9"/><line class="cls-3" x1="86.35" y1="128.9" x2="135.6" y2="154.65"/><line class="cls-3" x1="34.65" y1="154.65" x2="83.9" y2="128.9"/><line class="cls-3" x1="135.6" y1="154.65" x2="34.65" y2="154.65"/><path class="cls-4" d="M89.8,97.42l-5,2.62c13.48-10,13.9,11.38,4,16.11a9.25,9.25,0,0,1-4,.9" transform="translate(-1.73 -0.84)"/><path class="cls-4" d="M112.92,138.06" transform="translate(-1.73 -0.84)"/></svg>