<svg id="Layer_1" data-name="Layer 1" xmlns="http://www.w3.org/2000/svg" viewBox="0 0 161.72 166.62"><defs><style>.cls-1{fill:#fff;stroke-width:8px;}.cls-1,.cls-2{stroke:#231f20;stroke-linejoin:round;}.cls-2{fill:none;}</style></defs><rect class="cls-1" x="4" y="12.62" width="153.72" height="150"/><ellipse class="cls-1" cx="83" cy="88.5" rx="54.35" ry="56.61" transform="translate(-7.44 168.27) rotate(-88.5)"/><path class="cls-2" d="M55,94.39" transform="translate(0.21 -0.88)"/><path class="cls-2" d="M87,94.39" transform="translate(0.21 -0.88)"/><path class="cls-2" d="M26.11,96C29,68.12,37.69,63.13,44.2,76.34c6,12.25,2.28,29.55,14.18,28.39,11.5-1.13,5-35,20.16-35.61s5.33,34.58,23,33.85,5.09-35.08,21-35.73c13.48-.56,7.42,34.55,18.44,34.1" transform="translate(0.21 -0.88)"/><path class="cls-2" d="M132.86,67.47c-.71-1.55,1.13,0,1.13,0" transform="translate(0.21 -0.88)"/><rect class="cls-1" x="31.05" y="4" width="27.57" height="6.3"/><rect class="cls-1" x="99.48" y="4" width="31.15" height="6.3"/></svg>