<svg id="Layer_1" data-name="Layer 1" xmlns="http://www.w3.org/2000/svg" viewBox="0 0 197.77 146.15"><defs><style>.cls-1{fill:#fff;stroke:#231f20;stroke-linejoin:round;stroke-width:8px;}</style></defs><path class="cls-1" d="M16.26,4H181.52a12.26,12.26,0,0,1,12.26,12.26v31a94.89,94.89,0,0,1-94.89,94.89h0A94.89,94.89,0,0,1,4,47.26v-31A12.26,12.26,0,0,1,16.26,4Z"/><path class="cls-1" d="M32.61,38.92H165.16a3.69,3.69,0,0,1,3.69,3.69V62.47a70,70,0,0,1-70,70h0a70,70,0,0,1-70-70V42.61a3.69,3.69,0,0,1,3.69-3.69Z"/><rect class="cls-1" x="76.95" y="20.85" width="43.87" height="13.55"/><rect class="cls-1" x="91.84" y="16.98" width="16.77" height="45.16"/></svg>