<svg id="Layer_1" data-name="Layer 1" xmlns="http://www.w3.org/2000/svg" viewBox="0 0 517.24 357.8"><defs><style>.cls-1{fill:#fff;}.cls-1,.cls-2{stroke:#231f20;stroke-linejoin:round;stroke-width:8px;}.cls-2{fill:none;}</style></defs><rect class="cls-1" x="435.55" y="265.11" width="29.03" height="132.26" rx="5.73" transform="translate(778.35 -121.94) rotate(90)"/><rect class="cls-1" x="4" y="4" width="29.03" height="132.26" rx="5.73"/><rect class="cls-1" x="368.78" y="162.08" width="162.58" height="132.26" transform="translate(675.32 -224.97) rotate(90)"/><rect class="cls-1" x="417.81" y="211.11" width="160.65" height="36.13" transform="translate(724.35 -272.07) rotate(90)"/><rect class="cls-1" x="210.77" y="4" width="162.58" height="132.26"/><rect class="cls-1" x="212.71" y="4" width="160.65" height="36.13" rx="6.74"/><rect class="cls-1" x="40.77" y="4" width="162.58" height="132.26"/><rect class="cls-1" x="42.71" y="4" width="160.65" height="36.13" rx="8.84"/><path class="cls-2" d="M383.94,7.11C457,7.11,516.2,69.64,516.2,146.92" transform="translate(-2.96 -3.11)"/><line class="cls-2" x1="381.71" y1="140.15" x2="380.26" y2="0.9"/><path class="cls-2" d="M376.39,43.24c57.31,0,103.68,48.65,103.68,108.77" transform="translate(-2.96 -3.11)"/><rect class="cls-1" x="159.79" y="224.66" width="162.58" height="132.26" transform="translate(479.2 578.46) rotate(180)"/><rect class="cls-1" x="159.79" y="320.79" width="160.65" height="36.13" rx="6.74" transform="translate(477.26 674.59) rotate(180)"/><path class="cls-2" d="M152.16,356.92c-73.1,0-132.26-62.53-132.26-139.81" transform="translate(-2.96 -3.11)"/><line class="cls-2" x1="148.48" y1="217.66" x2="149.93" y2="356.9"/><path class="cls-2" d="M162,325.88c-57.31,0-103.68-48.65-103.68-108.77" transform="translate(-2.96 -3.11)"/><line class="cls-2" x1="16.99" y1="217.5" x2="148.48" y2="217.66"/></svg>