<svg id="Layer_1" data-name="Layer 1" xmlns="http://www.w3.org/2000/svg" viewBox="0 0 519.24 346.65"><defs><style>.cls-1{fill:none;}.cls-1,.cls-2{stroke:#231f20;stroke-linejoin:round;stroke-width:8px;}.cls-2{fill:#fff;}</style></defs><line class="cls-1" x1="94.53" y1="105.17" x2="226.01" y2="105.33"/><rect class="cls-2" x="434.68" y="264.16" width="29.03" height="132.26" rx="5.73" transform="translate(779.4 -121.07) rotate(90)"/><rect class="cls-2" x="4" y="4" width="29.03" height="132.26" rx="5.73"/><rect class="cls-2" x="367.91" y="161.13" width="162.58" height="132.26" transform="translate(676.37 -224.1) rotate(90)"/><rect class="cls-2" x="416.94" y="210.16" width="160.65" height="36.13" transform="translate(725.4 -271.2) rotate(90)"/><rect class="cls-2" x="210.77" y="4" width="162.58" height="132.26"/><rect class="cls-2" x="212.71" y="4" width="160.65" height="36.13" rx="6.74"/><rect class="cls-2" x="40.77" y="4" width="162.58" height="132.26"/><rect class="cls-2" x="42.71" y="4" width="160.65" height="36.13" rx="8.84"/><path class="cls-1" d="M381.07,6.16c73.11,0,132.26,62.53,132.26,139.81" transform="translate(-0.09 -2.16)"/><line class="cls-1" x1="381.71" y1="140.15" x2="380.26" y2="0.9"/><path class="cls-1" d="M373.52,42.29c57.31,0,103.68,48.65,103.68,108.77" transform="translate(-0.09 -2.16)"/></svg>