<svg id="Layer_1" data-name="Layer 1" xmlns="http://www.w3.org/2000/svg" viewBox="0 0 161.72 158"><defs><style>.cls-1{fill:#fff;}.cls-1,.cls-2{stroke:#231f20;stroke-linejoin:round;stroke-width:8px;}.cls-2{fill:none;}</style></defs><rect class="cls-1" x="4" y="4" width="153.72" height="150"/><rect class="cls-1" x="16.81" y="37.23" width="128.39" height="104.44"/><circle class="cls-1" cx="115.35" cy="112.58" r="10.65"/><line class="cls-2" x1="97.12" y1="112.58" x2="104.71" y2="112.58"/><line class="cls-2" x1="115.35" y1="93.81" x2="115.35" y2="101.94"/><line class="cls-2" x1="133.54" y1="112.58" x2="126" y2="112.58"/><line class="cls-2" x1="115.35" y1="130.4" x2="115.35" y2="123.23"/><circle class="cls-1" cx="115.35" cy="66.58" r="10.65"/><line class="cls-2" x1="97.12" y1="66.58" x2="104.71" y2="66.58"/><line class="cls-2" x1="115.35" y1="47.81" x2="115.35" y2="55.94"/><line class="cls-2" x1="133.54" y1="66.58" x2="126" y2="66.58"/><line class="cls-2" x1="115.35" y1="84.4" x2="115.35" y2="77.23"/><circle class="cls-1" cx="49.35" cy="66.58" r="10.65"/><line class="cls-2" x1="31.12" y1="66.58" x2="38.71" y2="66.58"/><line class="cls-2" x1="49.35" y1="47.81" x2="49.35" y2="55.94"/><line class="cls-2" x1="67.54" y1="66.58" x2="60" y2="66.58"/><line class="cls-2" x1="49.35" y1="84.4" x2="49.35" y2="77.23"/><circle class="cls-1" cx="49.35" cy="112.58" r="10.65"/><line class="cls-2" x1="31.12" y1="112.58" x2="38.71" y2="112.58"/><line class="cls-2" x1="49.35" y1="93.81" x2="49.35" y2="101.94"/><line class="cls-2" x1="67.54" y1="112.58" x2="60" y2="112.58"/><line class="cls-2" x1="49.35" y1="130.4" x2="49.35" y2="123.23"/><circle class="cls-1" cx="30.52" cy="17.15" r="0.96"/><circle class="cls-1" cx="59.57" cy="17.15" r="0.96"/><circle class="cls-1" cx="101.57" cy="17.15" r="0.96"/><circle class="cls-1" cx="129.57" cy="17.15" r="0.96"/></svg>