<svg id="Layer_1" data-name="Layer 1" xmlns="http://www.w3.org/2000/svg" viewBox="0 0 155.26 546.45"><defs><style>.cls-1,.cls-2{fill:#fff;}.cls-1,.cls-2,.cls-3,.cls-4{stroke:#231f20;stroke-linejoin:round;}.cls-1{stroke-width:8px;}.cls-2,.cls-3,.cls-4{stroke-width:5px;}.cls-3,.cls-4{fill:none;}.cls-4{stroke-linecap:round;}</style></defs><rect class="cls-1" x="-33.02" y="340.06" width="239.35" height="132.26" transform="translate(-321.06 491.89) rotate(-90)"/><rect class="cls-1" x="73.18" y="464.23" width="13.55" height="144.84" transform="translate(-458.23 615.63) rotate(-90)"/><rect class="cls-1" x="73.79" y="210.71" width="12.32" height="144.84" transform="translate(-204.71 362.11) rotate(-90)"/><rect class="cls-1" x="-43.34" y="461.26" width="110.32" height="12.58" transform="translate(-457.26 478.4) rotate(-90)"/><rect class="cls-1" x="-43.34" y="343.26" width="110.32" height="12.58" transform="translate(-339.26 360.4) rotate(-90)"/><path class="cls-2" d="M112.73,410.19" transform="translate(-1.53 -0.97)"/><rect class="cls-1" x="-33.02" y="68.06" width="239.35" height="132.26" transform="translate(-49.06 219.89) rotate(-90)"/><rect class="cls-1" x="73.18" y="192.23" width="13.55" height="144.84" transform="translate(-186.23 343.63) rotate(-90)"/><rect class="cls-1" x="73.79" y="-61.29" width="12.32" height="144.84" transform="translate(67.29 90.11) rotate(-90)"/><rect class="cls-1" x="-43.34" y="189.26" width="110.32" height="12.58" transform="translate(-185.26 206.4) rotate(-90)"/><rect class="cls-1" x="-43.34" y="71.26" width="110.32" height="12.58" transform="translate(-67.26 88.4) rotate(-90)"/><line class="cls-3" x1="85.13" y1="114.78" x2="85.13" y2="127.9"/><line class="cls-4" x1="86.35" y1="128.9" x2="135.6" y2="154.65"/><line class="cls-4" x1="34.65" y1="154.65" x2="83.9" y2="128.9"/><line class="cls-4" x1="135.6" y1="154.65" x2="34.65" y2="154.65"/><path class="cls-2" d="M89.61,97.55l-5,2.62c13.48-10,13.91,11.38,4,16.11a9.3,9.3,0,0,1-4,.9" transform="translate(-1.53 -0.97)"/><line class="cls-3" x1="85.13" y1="388.78" x2="85.13" y2="401.9"/><line class="cls-4" x1="86.35" y1="402.9" x2="135.6" y2="428.65"/><line class="cls-4" x1="34.65" y1="428.65" x2="83.9" y2="402.9"/><line class="cls-4" x1="135.6" y1="428.65" x2="34.65" y2="428.65"/><path class="cls-2" d="M89.61,371.55l-5,2.62c13.48-10,13.91,11.38,4,16.11a9.3,9.3,0,0,1-4,.9" transform="translate(-1.53 -0.97)"/><path class="cls-2" d="M112.73,138.19" transform="translate(-1.53 -0.97)"/></svg>