<svg id="Layer_1" data-name="Layer 1" xmlns="http://www.w3.org/2000/svg" viewBox="0 0 624.97 594.97"><defs><style>.cls-1{fill:#fff;stroke:#231f20;stroke-miterlimit:10;stroke-width:8px;}</style></defs><rect class="cls-1" x="147.42" y="131.74" width="336.13" height="336.13" rx="5.81"/><rect class="cls-1" x="267.74" y="19.48" width="95.48" height="95.48" rx="10.81"/><rect class="cls-1" x="263.55" y="4" width="103.87" height="26.29" rx="5.32"/><rect class="cls-1" x="512.26" y="237.61" width="95.48" height="95.48" rx="10.81" transform="translate(272.39 845.48) rotate(-90)"/><rect class="cls-1" x="558.15" y="272.21" width="103.87" height="26.29" rx="5.32" transform="translate(322.47 895.56) rotate(-90)"/><rect class="cls-1" x="267.74" y="19.48" width="95.48" height="95.48" rx="10.81"/><rect class="cls-1" x="263.55" y="4" width="103.87" height="26.29" rx="5.32"/><rect class="cls-1" x="21.74" y="241.61" width="95.48" height="95.48" rx="10.81" transform="translate(356.58 220) rotate(90)"/><rect class="cls-1" x="-32.53" y="276.21" width="103.87" height="26.29" rx="5.32" transform="translate(306.5 270.08) rotate(90)"/><rect class="cls-1" x="21.74" y="241.61" width="95.48" height="95.48" rx="10.81" transform="translate(356.58 220) rotate(90)"/><rect class="cls-1" x="-32.53" y="276.21" width="103.87" height="26.29" rx="5.32" transform="translate(306.5 270.08) rotate(90)"/><rect class="cls-1" x="267.74" y="480" width="95.48" height="95.48" rx="10.81"/><rect class="cls-1" x="263.55" y="564.68" width="103.87" height="26.29" rx="5.32"/></svg>