<?xml version="1.0" encoding="utf-8"?>
<!-- Generator: Adobe Illustrator 21.1.0, SVG Export Plug-In . SVG Version: 6.00 Build 0)  -->
<svg version="1.1" id="Layer_1" xmlns="http://www.w3.org/2000/svg" xmlns:xlink="http://www.w3.org/1999/xlink" x="0px" y="0px"
	 viewBox="0 0 350 350" style="enable-background:new 0 0 350 350;" xml:space="preserve">
<style type="text/css">
	.st0{fill:#FFFFFF;}
	.st1{fill:#231F20;}
</style>
<g>
	<path class="st0" d="M317.8,13v324c0,5-7.2,9-16.9,9H49.1c-9.7,0-16.9-4.1-16.9-9V13c0-5,7.2-9,16.9-9h251.8
		C310.6,4,317.8,8,317.8,13z"/>
	<path class="st1" d="M0,337V13C0,4.2,16.1,0,49.1,0h251.8c33,0,49.1,4.3,49.1,13v324c0,8.8-16.1,13-49.1,13H49.1
		C16.1,350,0,345.7,0,337z M67.6,7.9c-1.7,1.1-3.3,2.8-3.3,5.1v324c0,2.2,1.6,4,3.3,5.1h214.8c1.7-1.1,3.3-2.8,3.3-5.1V13
		c0-2.2-1.6-4-3.3-5.1H67.6z"/>
</g>
</svg>
