<?xml version="1.0" encoding="utf-8"?>
<!-- Generator: Adobe Illustrator 21.1.0, SVG Export Plug-In . SVG Version: 6.00 Build 0)  -->
<svg version="1.1" id="Layer_1" xmlns="http://www.w3.org/2000/svg" xmlns:xlink="http://www.w3.org/1999/xlink" x="0px" y="0px"
	 viewBox="0 0 350 350" style="enable-background:new 0 0 350 350;" xml:space="preserve">
<style type="text/css">
	.st0{fill:#FFFFFF;}
	.st1{fill:#231F20;}
</style>
<g>
	<path class="st0" d="M13,32.2h324c5,0,9,7.2,9,16.9v251.8c0,9.7-4.1,16.9-9,16.9H13c-5,0-9-7.2-9-16.9V49.1C4,39.4,8,32.2,13,32.2z
		"/>
	<path class="st1" d="M337,350H13c-8.8,0-13-16.1-13-49.1V49.1C0,16.1,4.3,0,13,0h324c8.8,0,13,16.1,13,49.1v251.8
		C350,333.9,345.7,350,337,350z M7.9,282.4c1.1,1.7,2.8,3.3,5.1,3.3h324c2.2,0,4-1.6,5.1-3.3V67.6c-1.1-1.7-2.8-3.3-5.1-3.3H13
		c-2.2,0-4,1.6-5.1,3.3V282.4z"/>
</g>
</svg>
